<?xml version="1.0" encoding="utf-8"?>
<!-- Generator: Adobe Illustrator 19.0.0, SVG Export Plug-In . SVG Version: 6.00 Build 0)  -->
<svg version="1.1" id="Layer_1" xmlns="http://www.w3.org/2000/svg" xmlns:xlink="http://www.w3.org/1999/xlink" x="0px" y="0px"
	 viewBox="243 -244 512 512" style="enable-background:new 243 -244 512 512;" xml:space="preserve">
<style type="text/css">
	.st0{fill:#079A0F;stroke:#117417;stroke-width:5;stroke-miterlimit:10;}
	.st1{fill:#079A0F;stroke:#117417;stroke-miterlimit:10;}
</style>
<g>
	<g>
		<polygon class="st0" points="708.8,98 442.4,98 330.4,-158 261,-158 261,-190 351.4,-190 463.4,66 708.8,66"/>
	</g>
	<path class="st1" d="M540.6,173.8c0,24.2-19.6,43.8-43.8,43.8S453,198,453,173.8s19.6-43.8,43.8-43.8S540.6,149.6,540.6,173.8z"/>
	<path class="st1" d="M694.8,173.8c0,24.2-19.6,43.8-43.8,43.8c-24.2,0-43.8-19.6-43.8-43.8s19.6-43.8,43.8-43.8
		C675.1,130,694.8,149.6,694.8,173.8z"/>
</g>
</svg>
