<?xml version="1.0" encoding="utf-8"?>
<!-- Generator: Adobe Illustrator 19.0.0, SVG Export Plug-In . SVG Version: 6.00 Build 0)  -->
<svg version="1.1" id="Layer_1" xmlns="http://www.w3.org/2000/svg" xmlns:xlink="http://www.w3.org/1999/xlink" x="0px" y="0px"
	 viewBox="243 -244 512 512" style="enable-background:new 243 -244 512 512;" xml:space="preserve">
<style type="text/css">
	.st0{fill:#079A0F;stroke:#117417;stroke-width:5;stroke-miterlimit:10;}
	.st1{fill:#079A0F;stroke:#117417;stroke-miterlimit:10;}
	.st2{fill:#079A0F;stroke:#5F5F5F;stroke-width:4;stroke-miterlimit:10;}
	.st3{fill:#079A0F;stroke:#000000;stroke-width:3;stroke-miterlimit:10;}
</style>
<g>
	<g>
		<polygon class="st0" points="681.7,104 415.3,104 303.3,-152 233.8,-152 233.8,-184 324.2,-184 436.2,72 681.7,72 		"/>
	</g>
	<path class="st1" d="M513.4,179.8c0,24.2-19.6,43.8-43.8,43.8s-43.8-19.6-43.8-43.8s19.6-43.8,43.8-43.8S513.4,155.6,513.4,179.8z"
		/>
	<path class="st1" d="M667.6,179.8c0,24.2-19.6,43.8-43.8,43.8S580,204,580,179.8s19.6-43.8,43.8-43.8
		C647.9,136,667.6,155.6,667.6,179.8z"/>
</g>
<rect x="557" y="-25.3" class="st2" width="27" height="24"/>
<g>
	<path class="st3" d="M578.7-232c-72.5,0-131.2,58.8-131.2,131.2S506.2,30.5,578.7,30.5s131.2-58.8,131.2-131.3S651.1-232,578.7-232
		z M558.8-34.5L532.3-61l-39.8-39.8l26.5-26.5l39.8,39.8l79.5-79.5l26.5,26.5L558.8-34.5z"/>
</g>
</svg>
