<?xml version="1.0" encoding="utf-8"?>
<!-- Generator: Adobe Illustrator 19.0.0, SVG Export Plug-In . SVG Version: 6.00 Build 0)  -->
<svg version="1.1" id="Layer_1" xmlns="http://www.w3.org/2000/svg" xmlns:xlink="http://www.w3.org/1999/xlink" x="0px" y="0px"
	 viewBox="243 -244 512 512" style="enable-background:new 243 -244 512 512;" xml:space="preserve">
<style type="text/css">
	.st0{stroke:#000000;stroke-width:5;stroke-miterlimit:10;}
	.st1{stroke:#000000;stroke-width:4;stroke-miterlimit:10;}
	.st2{fill:none;stroke:#000000;stroke-width:35;stroke-miterlimit:10;}
</style>
<g>
	<g>
		<polygon class="st0" points="691,92 424.5,92 312.5,-164 243,-164 243,-196 333.5,-196 445.5,60 691,60 		"/>
	</g>
	<path d="M522.6,167.8c0,24.2-19.6,43.8-43.8,43.8S435,192,435,167.8s19.6-43.8,43.8-43.8S522.6,143.6,522.6,167.8z"/>
	<path d="M676.8,167.8c0,24.2-19.6,43.8-43.8,43.8s-43.8-19.6-43.8-43.8S608.8,124,633,124S676.8,143.6,676.8,167.8z"/>
</g>
<rect x="422.3" y="-92.5" class="st1" width="27" height="24"/>
<rect x="496.8" y="-92.5" class="st1" width="27" height="24"/>
<rect x="570.3" y="-92.5" class="st1" width="27" height="24"/>
<rect x="644.8" y="-92.5" class="st1" width="27" height="24"/>
<rect x="463.3" y="-37.3" class="st1" width="27" height="24"/>
<rect x="537.8" y="-37.3" class="st1" width="27" height="24"/>
<rect x="611.3" y="-37.3" class="st1" width="27" height="24"/>
<rect x="507" y="13" class="st1" width="27" height="24"/>
<rect x="581.5" y="13" class="st1" width="27" height="24"/>
<g>
</g>
<line class="st2" x1="729" y1="-92.5" x2="669.8" y2="85.6"/>
</svg>
