<?xml version="1.0" encoding="utf-8"?>
<!-- Generator: Adobe Illustrator 19.0.0, SVG Export Plug-In . SVG Version: 6.00 Build 0)  -->
<svg version="1.1" id="Layer_1" xmlns="http://www.w3.org/2000/svg" xmlns:xlink="http://www.w3.org/1999/xlink" x="0px" y="0px"
	 viewBox="243 -244 512 512" style="enable-background:new 243 -244 512 512;" xml:space="preserve">
<style type="text/css">
	.st0{stroke:#000000;stroke-width:5;stroke-miterlimit:10;}
	.st1{stroke:#000000;stroke-miterlimit:10;}
</style>
<g>
	<g>
		<polygon class="st0" points="694.7,111 428.3,111 316.3,-145 246.8,-145 246.8,-177 337.2,-177 449.2,79 694.7,79 		"/>
	</g>
	<path class="st1" d="M526.4,186.8c0,24.2-19.6,43.8-43.8,43.8s-43.8-19.6-43.8-43.8s19.6-43.8,43.8-43.8S526.4,162.6,526.4,186.8z"
		/>
	<path class="st1" d="M680.6,186.8c0,24.2-19.6,43.8-43.8,43.8S593,211,593,186.8s19.6-43.8,43.8-43.8
		C660.9,143,680.6,162.6,680.6,186.8z"/>
	<polygon points="658.2,103.3 696.7,113.3 755,-46.9 720.4,-46.9 	"/>
</g>
</svg>
