<?xml version="1.0" encoding="utf-8"?>
<!-- Generator: Adobe Illustrator 19.0.0, SVG Export Plug-In . SVG Version: 6.00 Build 0)  -->
<svg version="1.1" id="Layer_1" xmlns="http://www.w3.org/2000/svg" xmlns:xlink="http://www.w3.org/1999/xlink" x="0px" y="0px"
	 viewBox="487 -488 1000 1000" style="enable-background:new 487 -488 1000 1000;" xml:space="preserve">
<g>
	<g transform="translate(0.000000,512.000000) scale(0.100000,-0.100000)">
		<path d="M5300.3-50c-150.5,0-280,99.1-315,240.9c-22.1,89.3-9.5,346.2-8,375.6c92.9,1880.3,1301.3,3557.7,3078.6,4272.9
			c94.4,37.8,216.7,80.5,313.8,111.6c-810.9,526.6-1272.9,1369-1272.9,2331.3c0,326.9,37.1,567,132.2,856.4
			c166,513.1,478.9,964.5,904.6,1304.9c425.8,340.5,935,546.2,1472.6,595c78,7.5,160.1,11.4,243.1,11.4c291.8,0,589.1-46,859.8-133
			c969.9-310.4,1690.9-1132.7,1881.6-2146c51.7-265.1,51.7-712.5,0-977.5c-76.6-405.6-230.1-775-456.2-1098.1
			c-203.4-290.6-462.4-539.1-771-739.9c346.6-112.6,678.3-262.4,989.2-446.8c386-229,741.5-512.3,1056.7-842.3
			c407.5-425.2,730.6-911.7,960.2-1446c229.4-533.8,361.7-1106.3,393.2-1701.7c13.1-256.2,12.6-406-149.1-510.1
			c-58.6-38.1-124.9-58.5-191.2-58.5c0,0,0,0,0,0c-91.1,0-175.8,37.8-238.6,106.4l-1,1.1c-87,96.9-89.5,152.5-101.5,419.5
			c-72,1540.3-981.5,2921.1-2373.5,3603.2c-580.2,283.2-1178.2,420.9-1827.9,420.9c-51.3,0-103.6-0.9-155.4-2.7
			c-633.3-22.3-1143-148-1704.4-420.5c-1402.3-678.7-2289.3-2032.5-2373-3621.3c-13.5-235.9-17.1-299.1-101.3-396.9l-2.5-2.9
			C5481.7-11.1,5393.1-50,5300.3-50z M9864.1,9376.4c-547.2,0-1086.5-224.5-1479.6-615.9c-278.9-278.9-446.3-577.2-559.5-997.3
			c-39.2-146.3-42.8-186.8-42.8-480.8c0-293.7,3.6-334.1,42.9-481.2c115.8-428.8,283.9-723.2,580.1-1015.8
			c291.8-286.5,663.6-481.6,1075-563.9c70.4-13.9,220.9-23,383-23s312.6,9,383.4,23c171.6,34.4,361.8,97.4,521.3,172.7
			c455.4,217,853,641.2,1037.1,1106.9c352.2,893.8,71.4,1883.5-698.7,2462.5c-248.7,187-645.3,348.7-964.5,393.3
			C10050.4,9369.9,9957,9376.4,9864.1,9376.4z"/>
		<path d="M9619.8,9889.2c-1035.9-94-1927.9-807.6-2248.2-1797.4c-90.2-274.3-124.7-498.8-124.7-809.5
			c0-951.5,477.6-1780.2,1314-2273.2c97.8-57.5,165-107.4,149.6-113.2c-15.3-5.8-109.3-32.6-209.1-61.4
			c-99.8-28.8-274.3-88.2-389.4-134.3C6391.3,4007.8,5217.3,2383,5127.2,558.7c-7.7-147.7-5.8-297.3,3.8-331.9
			c32.6-132.4,209.1-170.7,301.2-69.1c47.9,55.6,51.8,72.9,65.2,306.9c86.3,1638.3,1010.9,3048.3,2457.3,3748.4
			c585.1,284,1110.7,412.5,1764.8,435.5c729,24.9,1410-118.9,2054.5-433.5c1444.5-707.8,2382.5-2131.2,2457.3-3731.1
			c11.5-255.1,13.4-270.5,63.3-326.1c61.4-67.1,155.4-76.7,237.9-23c80.5,51.8,94,111.3,80.5,376
			c-61.4,1160.5-517.9,2223.3-1312.1,3052c-615.7,644.5-1375.4,1093.4-2225.2,1321.6l-84.4,21.1l189.9,113.2
			c677.2,402.8,1116.4,1030.1,1262.2,1803.2c48,245.5,48,675.2,0,920.8c-180.3,959.1-863.2,1738-1780.2,2031.5
			C10335.3,9879.6,9957.4,9921.8,9619.8,9889.2z M10162.6,9505.6c343.4-48,763.5-218.7,1033.9-422
			c819.1-615.8,1122.2-1688.1,748.1-2637.6c-199.5-504.5-621.5-953.4-1112.6-1187.4c-170.7-80.6-374.1-147.7-556.3-184.2
			c-174.6-34.5-650.3-34.5-824.9,0c-441.2,88.3-836.4,295.4-1151,604.3c-314.6,310.8-496.8,629.2-619.6,1083.8
			c-44.1,165-48,220.6-48,519.9c0,299.2,3.8,354.9,48,519.8c118.9,441.2,301.2,767.3,598.5,1064.6
			C8775.7,9361.7,9479.7,9601.5,10162.6,9505.6z"/>
	</g>
</g>
</svg>
